# xmcd
# 
# Track frame offsets:
#     150
#     30065
#     50772
#     71605
#     93852
#     111170
#     147020
# 
# Disc length: 2386
# 
# Revision: 4
# Processed by: cddbd v1.5.2PL0 Copyright (c) Steve Scherf et al.
# Submitted via: fre:ac v1.0.31
# 
DISCID=53095007
DTITLE=Magic Slim and The Teardrops - Folha Soul and Blues
DYEAR=2015
DGENRE=
TTITLE0=You Can't Lose What You Never Had
TTITLE1=Gravel Road
TTITLE2=Ain't Doing Too Bad
TTITLE3=Why Does A Woman Treat A Good Man So Bad
TTITLE4=Mama, Talk to Your Daughter
TTITLE5=Mustang Sally
TTITLE6=In The Heart Of The Blues
EXTD=
EXTT0=
EXTT1=
EXTT2=
EXTT3=
EXTT4=
EXTT5=
EXTT6=
PLAYORDER=
